<svg xmlns="http://www.w3.org/2000/svg" xmlns:xlink="http://www.w3.org/1999/xlink" width="2000" zoomAndPan="magnify" viewBox="0 0 1500 1499.999933" height="2000" preserveAspectRatio="xMidYMid meet" version="1.0"><defs><g/><clipPath id="0f89e0efca"><rect x="0" width="572" y="0" height="1022"/></clipPath><clipPath id="a38edf6e86"><rect x="0" width="555" y="0" height="1022"/></clipPath></defs><g transform="matrix(1, 0, 0, 1, 336, 158)"><g clip-path="url(#0f89e0efca)"><g fill="#1f2b12" fill-opacity="1"><g transform="translate(45.749164, 813.317092)"><g><path d="M 208.1875 37.972656 C 143.519531 37.972656 92.90625 21.054688 56.339844 -12.777344 C 21.535156 -44.980469 -1.382812 -80.296875 -12.414062 -118.734375 C -22.625 -154.324219 -27.730469 -184.996094 -27.730469 -210.75 L -26.867188 -285.152344 L -26.835938 -285.808594 C -26.296875 -296.054688 -26.027344 -307.726562 -26.027344 -320.816406 C -26.027344 -326.558594 -25.617188 -331.535156 -24.800781 -335.75 C -22.929688 -345.417969 -18.648438 -353.042969 -11.953125 -358.621094 C -3.265625 -365.863281 8.152344 -368.695312 22.304688 -367.125 L 18.769531 -335.320312 L 18.769531 -367.320312 C 23.570312 -367.320312 39.753906 -369.210938 67.320312 -372.996094 L 68.605469 -373.171875 L 69.898438 -373.242188 C 84.539062 -374.054688 96.511719 -369.8125 105.816406 -360.507812 C 114.625 -351.699219 119.027344 -340.175781 119.027344 -325.933594 C 119.027344 -320.597656 118.285156 -313.855469 116.804688 -305.707031 C 116.011719 -301.34375 115.613281 -297.5625 115.613281 -294.367188 C 115.613281 -242.054688 119.359375 -202.207031 126.851562 -174.824219 C 133.261719 -151.398438 140.707031 -136.308594 149.191406 -129.558594 C 157.296875 -123.105469 167.859375 -119.882812 180.886719 -119.882812 C 195.84375 -119.882812 207.597656 -123.484375 216.148438 -130.691406 C 226.324219 -139.269531 233.566406 -149.4375 237.875 -161.183594 C 242.828125 -174.691406 245.304688 -187.234375 245.304688 -198.804688 L 247.863281 -434.644531 L 279.859375 -434.296875 L 247.933594 -432.167969 C 246.75 -449.941406 246.15625 -469.421875 246.15625 -490.609375 L 247.011719 -573.703125 L 279.007812 -573.375 L 247.109375 -570.820312 C 246.339844 -580.464844 246.507812 -588.785156 247.617188 -595.773438 C 249.484375 -607.527344 254.113281 -616.835938 261.5 -623.699219 C 271.621094 -633.09375 284.566406 -637.792969 300.339844 -637.792969 L 300.339844 -605.796875 L 295.078125 -637.359375 C 299.019531 -638.015625 304.953125 -638.800781 312.882812 -639.714844 C 321.496094 -640.710938 329.542969 -641.207031 337.027344 -641.207031 C 345.398438 -641.207031 352.039062 -640.714844 356.953125 -639.734375 L 350.679688 -608.355469 L 352.558594 -640.296875 C 372.296875 -639.136719 386.269531 -632.914062 394.476562 -621.628906 C 398.925781 -615.511719 401.679688 -607.773438 402.738281 -598.410156 C 403.359375 -592.9375 403.484375 -586.359375 403.117188 -578.675781 L 371.15625 -580.199219 L 403.152344 -579.988281 L 401.433594 -316.730469 L 401.125 -314.585938 C 400.863281 -312.726562 400.808594 -310.453125 400.964844 -307.761719 C 401.289062 -302.300781 401.449219 -297.269531 401.449219 -292.660156 L 401.449219 -265.355469 C 401.449219 -169.050781 386.511719 -95.769531 356.640625 -45.511719 C 340.285156 -17.988281 319.535156 2.824219 294.394531 16.921875 C 269.375 30.953125 240.640625 37.972656 208.1875 37.972656 Z M 208.1875 -26.027344 C 229.492188 -26.027344 247.792969 -30.316406 263.089844 -38.894531 C 278.261719 -47.402344 291.109375 -60.507812 301.628906 -78.207031 C 325.511719 -118.390625 337.453125 -180.773438 337.453125 -265.355469 L 337.453125 -292.660156 C 337.453125 -296.015625 337.328125 -299.796875 337.082031 -304.003906 C 336.671875 -310.984375 336.902344 -317.527344 337.773438 -323.632812 L 369.449219 -319.109375 L 337.453125 -319.320312 L 339.164062 -581.066406 L 339.195312 -581.722656 C 339.398438 -585.980469 339.382812 -589.144531 339.148438 -591.210938 C 339.128906 -591.378906 339.117188 -591.484375 339.109375 -591.523438 C 339.152344 -591.28125 339.230469 -590.984375 339.332031 -590.628906 C 339.984375 -588.414062 341.113281 -586.199219 342.71875 -583.988281 C 345.753906 -579.820312 349.164062 -577.148438 352.949219 -575.976562 C 352.433594 -576.132812 351.050781 -576.28125 348.800781 -576.414062 L 346.582031 -576.542969 L 344.402344 -576.980469 C 343.632812 -577.132812 341.171875 -577.210938 337.027344 -577.210938 C 331.996094 -577.210938 326.394531 -576.855469 320.21875 -576.140625 C 313.355469 -575.351562 308.484375 -574.714844 305.597656 -574.234375 L 302.988281 -573.796875 L 300.339844 -573.796875 L 300.417969 -573.976562 C 302.046875 -574.507812 303.589844 -575.449219 305.046875 -576.800781 C 307.375 -578.964844 309.089844 -581.335938 310.195312 -583.925781 C 310.554688 -584.769531 310.765625 -585.375 310.824219 -585.742188 C 310.511719 -583.773438 310.539062 -580.5 310.902344 -575.925781 L 311.019531 -574.488281 L 310.152344 -490.609375 C 310.152344 -470.84375 310.699219 -452.78125 311.789062 -436.425781 L 311.871094 -435.1875 L 309.300781 -198.804688 C 309.300781 -179.65625 305.519531 -159.773438 297.957031 -139.152344 C 289.75 -116.773438 276.230469 -97.644531 257.398438 -81.765625 C 236.933594 -64.511719 211.429688 -55.886719 180.886719 -55.886719 C 152.953125 -55.886719 129.105469 -63.75 109.339844 -79.484375 C 89.949219 -94.917969 75.210938 -121.066406 65.125 -157.9375 C 56.121094 -190.847656 51.617188 -236.324219 51.617188 -294.367188 C 51.617188 -301.410156 52.359375 -309.003906 53.839844 -317.15625 C 54.636719 -321.519531 55.03125 -324.445312 55.03125 -325.933594 C 55.03125 -325.292969 55.222656 -324.375 55.605469 -323.183594 C 56.546875 -320.265625 58.199219 -317.621094 60.5625 -315.253906 C 63.113281 -312.703125 66.027344 -310.945312 69.300781 -309.972656 C 70.929688 -309.492188 72.3125 -309.28125 73.445312 -309.34375 L 71.671875 -341.292969 L 76.023438 -309.59375 C 45.570312 -305.414062 26.484375 -303.324219 18.769531 -303.324219 L 17 -303.324219 L 15.238281 -303.519531 C 14.953125 -303.550781 14.78125 -303.566406 14.71875 -303.566406 C 15.15625 -303.558594 15.699219 -303.597656 16.339844 -303.675781 C 20.839844 -304.238281 25.066406 -306.167969 29.015625 -309.460938 C 34.003906 -313.617188 37.007812 -318.328125 38.027344 -323.589844 C 37.988281 -323.390625 37.972656 -322.46875 37.972656 -320.816406 C 37.972656 -306.601562 37.671875 -293.8125 37.074219 -282.445312 L 5.121094 -284.125 L 37.117188 -283.753906 L 36.265625 -210.75 C 36.265625 -190.996094 40.542969 -166.207031 49.101562 -136.382812 C 56.84375 -109.40625 73.742188 -83.859375 99.800781 -59.75 C 124.101562 -37.265625 160.230469 -26.027344 208.1875 -26.027344 Z M 208.1875 -26.027344 "/></g></g></g><g fill="#1f2b12" fill-opacity="1"><g transform="translate(45.749164, 813.317092)"><g><path d="M 208.1875 5.96875 C 151.875 5.96875 108.5 -8.109375 78.0625 -36.265625 C 47.632812 -64.421875 27.726562 -94.851562 18.34375 -127.5625 C 8.957031 -160.269531 4.265625 -188 4.265625 -210.75 L 5.125 -284.125 C 5.6875 -294.9375 5.96875 -307.164062 5.96875 -320.8125 C 5.96875 -328.207031 6.820312 -332.613281 8.53125 -334.03125 C 10.238281 -335.457031 13.648438 -335.890625 18.765625 -335.328125 C 25.023438 -335.328125 42.660156 -337.316406 71.671875 -341.296875 C 81.910156 -341.859375 87.03125 -336.738281 87.03125 -325.9375 C 87.03125 -322.519531 86.457031 -317.679688 85.3125 -311.421875 C 84.175781 -305.171875 83.609375 -299.484375 83.609375 -294.359375 C 83.609375 -239.191406 87.734375 -196.53125 95.984375 -166.375 C 104.234375 -136.226562 115.328125 -115.609375 129.265625 -104.515625 C 143.203125 -93.429688 160.410156 -87.890625 180.890625 -87.890625 C 203.640625 -87.890625 222.265625 -94.003906 236.765625 -106.234375 C 251.273438 -118.460938 261.65625 -133.109375 267.90625 -150.171875 C 274.164062 -167.234375 277.296875 -183.441406 277.296875 -198.796875 L 279.859375 -434.296875 C 278.722656 -451.359375 278.15625 -470.128906 278.15625 -490.609375 L 279 -573.375 C 277.863281 -587.59375 279.285156 -596.550781 283.265625 -600.25 C 287.253906 -603.945312 292.945312 -605.796875 300.34375 -605.796875 C 303.75 -606.367188 309.148438 -607.078125 316.546875 -607.921875 C 323.941406 -608.773438 330.769531 -609.203125 337.03125 -609.203125 C 343.28125 -609.203125 347.828125 -608.921875 350.671875 -608.359375 C 360.347656 -607.785156 366.320312 -605.9375 368.59375 -602.8125 C 370.875 -599.6875 371.726562 -592.148438 371.15625 -580.203125 L 369.453125 -319.109375 C 368.878906 -315.128906 368.734375 -310.71875 369.015625 -305.875 C 369.304688 -301.039062 369.453125 -296.632812 369.453125 -292.65625 L 369.453125 -265.359375 C 369.453125 -84.472656 315.695312 5.96875 208.1875 5.96875 Z M 208.1875 5.96875 "/></g></g></g></g></g><g transform="matrix(1, 0, 0, 1, 670, 334)"><g clip-path="url(#a38edf6e86)"><g fill="#1f2b12" fill-opacity="1"><g transform="translate(16.68282, 813.410637)"><g><path d="M 79.054688 29.191406 C 69.941406 30.332031 61.695312 29.757812 54.316406 27.472656 C 43.441406 24.109375 35.195312 17.65625 29.585938 8.117188 C 23.796875 -1.722656 20.902344 -14.667969 20.902344 -30.714844 C 20.902344 -43.824219 21.203125 -55.789062 21.804688 -66.621094 L 53.753906 -64.847656 L 21.757812 -65.226562 L 22.609375 -136.898438 L 24.320312 -237.742188 C 27.730469 -358.273438 29.433594 -452.230469 29.433594 -519.621094 C 29.433594 -538.582031 29.257812 -549.300781 28.902344 -551.785156 L 28.789062 -552.59375 L 28.714844 -553.410156 C 27.488281 -566.890625 26.875 -575.25 26.875 -578.492188 C 26.875 -590.214844 28.5 -599.917969 31.75 -607.597656 C 34.667969 -614.496094 38.867188 -620.105469 44.351562 -624.425781 C 51.332031 -629.925781 59.300781 -632.675781 68.257812 -632.675781 C 71.789062 -632.675781 78.308594 -632.367188 87.808594 -631.753906 C 95.941406 -631.230469 107.625 -630.96875 122.867188 -630.96875 C 127.09375 -630.96875 138.429688 -631.246094 156.878906 -631.808594 C 175.972656 -632.386719 195.921875 -632.675781 216.722656 -632.675781 C 247.535156 -632.675781 276.925781 -631.800781 304.894531 -630.054688 C 352.976562 -627.265625 392.902344 -607.71875 424.675781 -571.40625 C 455.832031 -535.796875 471.414062 -484.402344 471.414062 -417.230469 C 471.414062 -371.632812 461.136719 -334.65625 440.578125 -306.300781 C 420.507812 -278.617188 396.84375 -259.214844 369.589844 -248.097656 C 344.101562 -237.703125 321.015625 -232.503906 300.339844 -232.503906 C 285.976562 -232.503906 261.09375 -230.84375 225.679688 -227.523438 C 204.253906 -225.207031 186.65625 -223.746094 172.890625 -223.148438 L 171.5 -255.117188 L 203.492188 -254.421875 C 202.359375 -202.320312 201.792969 -167.003906 201.792969 -148.460938 C 201.792969 -111.714844 202.003906 -83.429688 202.425781 -63.605469 C 202.628906 -53.941406 202.882812 -46.394531 203.183594 -40.960938 C 203.316406 -38.550781 203.449219 -36.671875 203.589844 -35.320312 C 203.628906 -34.933594 203.65625 -34.675781 203.675781 -34.550781 C 203.589844 -35.109375 203.441406 -35.785156 203.222656 -36.574219 L 203.515625 -35.511719 L 203.730469 -34.433594 C 206.710938 -19.527344 203.859375 -6.148438 195.171875 5.699219 C 187.777344 15.777344 178.203125 22.546875 166.449219 26.003906 C 154.25 29.59375 142.628906 29.023438 131.59375 24.292969 L 144.195312 -5.121094 L 134.078125 25.238281 C 135.601562 25.746094 136.972656 26.078125 138.191406 26.238281 C 138.125 26.226562 137.863281 26.210938 137.410156 26.183594 C 135.621094 26.078125 133.046875 26.027344 129.691406 26.027344 C 113.878906 26.027344 96.921875 27.089844 78.824219 29.21875 Z M 71.347656 -34.339844 C 91.929688 -36.761719 111.375 -37.972656 129.691406 -37.972656 C 141.117188 -37.972656 149.324219 -37.140625 154.316406 -35.476562 L 155.578125 -35.054688 L 156.800781 -34.53125 C 153.726562 -35.847656 150.921875 -36.136719 148.394531 -35.390625 C 146.308594 -34.777344 144.699219 -33.695312 143.5625 -32.148438 C 141.132812 -28.832031 140.269531 -25.410156 140.976562 -21.882812 L 172.351562 -28.15625 L 141.484375 -19.738281 C 139.023438 -28.75 137.796875 -71.660156 137.796875 -148.460938 C 137.796875 -167.464844 138.367188 -203.25 139.507812 -255.8125 L 140.160156 -285.78125 L 170.109375 -287.085938 C 182.507812 -287.625 199.039062 -289.007812 219.707031 -291.242188 C 257.105469 -294.746094 283.980469 -296.5 300.339844 -296.5 C 312.652344 -296.5 327.679688 -300.117188 345.417969 -307.355469 C 361.394531 -313.871094 375.84375 -326.042969 388.765625 -343.863281 C 401.199219 -361.015625 407.417969 -385.472656 407.417969 -417.230469 C 407.417969 -468.375 397.117188 -505.71875 376.511719 -529.265625 C 356.519531 -552.113281 331.316406 -564.417969 300.902344 -566.179688 C 274.261719 -567.847656 246.203125 -568.679688 216.722656 -568.679688 C 196.566406 -568.679688 177.265625 -568.398438 158.816406 -567.839844 C 139.722656 -567.261719 127.738281 -566.972656 122.867188 -566.972656 C 106.25 -566.972656 93.191406 -567.277344 83.691406 -567.890625 C 75.558594 -568.417969 70.414062 -568.679688 68.257812 -568.679688 C 74.089844 -568.679688 79.320312 -570.503906 83.957031 -574.15625 C 87.089844 -576.625 89.335938 -579.460938 90.6875 -582.664062 C 90.929688 -583.230469 91.101562 -583.722656 91.207031 -584.136719 C 91.199219 -584.105469 91.179688 -583.96875 91.144531 -583.730469 C 90.960938 -582.4375 90.871094 -580.691406 90.871094 -578.492188 C 90.871094 -577.183594 91.394531 -570.757812 92.445312 -559.207031 L 60.578125 -556.308594 L 92.257812 -560.832031 C 93.039062 -555.351562 93.429688 -541.613281 93.429688 -519.621094 C 93.429688 -451.628906 91.722656 -357.308594 88.308594 -236.65625 L 86.601562 -136.136719 L 85.742188 -63.765625 L 85.703125 -63.070312 C 85.167969 -53.421875 84.898438 -42.636719 84.898438 -30.714844 C 84.898438 -27.59375 85.070312 -25.125 85.410156 -23.316406 C 85.476562 -22.960938 85.523438 -22.746094 85.550781 -22.667969 C 85.386719 -23.144531 85.121094 -23.695312 84.746094 -24.328125 C 81.980469 -29.03125 78.144531 -32.140625 73.242188 -33.660156 C 72.140625 -34 71.179688 -34.191406 70.351562 -34.230469 L 70.316406 -34.234375 C 70.53125 -34.246094 70.796875 -34.269531 71.117188 -34.3125 Z M 276.449219 -357.933594 C 290.867188 -357.933594 304.449219 -362.3125 317.191406 -371.074219 C 326.148438 -377.230469 330.625 -390.910156 330.625 -412.113281 C 330.625 -439.375 325.828125 -459.050781 316.230469 -471.144531 C 306.960938 -482.824219 292.585938 -490.492188 273.109375 -494.140625 C 233.007812 -502.160156 202.152344 -505.417969 180.554688 -503.910156 L 178.324219 -535.832031 L 210.324219 -535.832031 C 210.324219 -519.144531 210.011719 -506.4375 209.390625 -497.714844 L 177.472656 -499.996094 L 209.449219 -498.851562 C 208.277344 -466.054688 206.78125 -442.359375 204.957031 -427.765625 C 202.902344 -409.773438 202.40625 -389.113281 203.464844 -365.785156 L 205.164062 -332.695312 L 173.207031 -331.054688 L 175.246094 -362.988281 L 216.097656 -360.378906 L 216.84375 -360.296875 C 231.027344 -358.722656 250.894531 -357.933594 276.449219 -357.933594 Z M 276.449219 -293.9375 C 248.53125 -293.9375 226.308594 -294.855469 209.773438 -296.691406 L 213.308594 -328.496094 L 211.269531 -296.5625 L 142.710938 -300.9375 L 139.535156 -362.878906 C 138.320312 -389.605469 138.960938 -413.882812 141.457031 -435.707031 C 143.042969 -448.417969 144.390625 -470.230469 145.496094 -501.136719 L 145.515625 -501.707031 L 145.554688 -502.273438 C 146.070312 -509.480469 146.328125 -520.664062 146.328125 -535.832031 L 146.328125 -565.675781 L 176.097656 -567.75 C 203.417969 -569.65625 239.683594 -566.085938 284.90625 -557.042969 C 320.035156 -550.457031 347.1875 -535.082031 366.355469 -510.929688 C 385.199219 -487.183594 394.621094 -454.246094 394.621094 -412.113281 C 394.621094 -368.46875 380.898438 -337.210938 353.449219 -318.339844 C 329.785156 -302.070312 304.121094 -293.9375 276.449219 -293.9375 Z M 276.449219 -293.9375 "/></g></g></g><g fill="#1f2b12" fill-opacity="1"><g transform="translate(16.68282, 813.410637)"><g><path d="M 75.078125 -2.5625 C 65.984375 -1.425781 60.015625 -3.273438 57.171875 -8.109375 C 54.328125 -12.941406 52.90625 -20.476562 52.90625 -30.71875 C 52.90625 -43.226562 53.1875 -54.601562 53.75 -64.84375 L 54.609375 -136.515625 L 56.3125 -237.203125 C 59.726562 -357.785156 61.4375 -451.925781 61.4375 -519.625 C 61.4375 -540.101562 61.148438 -552.332031 60.578125 -556.3125 C 59.441406 -568.820312 58.875 -576.21875 58.875 -578.5 C 58.875 -593.28125 62.003906 -600.671875 68.265625 -600.671875 C 71.109375 -600.671875 76.9375 -600.382812 85.75 -599.8125 C 94.5625 -599.25 106.929688 -598.96875 122.859375 -598.96875 C 127.410156 -598.96875 139.070312 -599.25 157.84375 -599.8125 C 176.613281 -600.382812 196.238281 -600.671875 216.71875 -600.671875 C 246.863281 -600.671875 275.585938 -599.820312 302.890625 -598.125 C 342.140625 -595.84375 374.707031 -579.910156 400.59375 -550.328125 C 426.476562 -520.753906 439.421875 -476.390625 439.421875 -417.234375 C 439.421875 -378.554688 431.171875 -347.835938 414.671875 -325.078125 C 398.171875 -302.328125 379.113281 -286.539062 357.5 -277.71875 C 335.882812 -268.90625 316.832031 -264.5 300.34375 -264.5 C 284.976562 -264.5 259.09375 -262.796875 222.6875 -259.390625 C 201.644531 -257.109375 184.582031 -255.679688 171.5 -255.109375 C 170.363281 -202.785156 169.796875 -167.238281 169.796875 -148.46875 C 169.796875 -74.519531 170.648438 -34.414062 172.359375 -28.15625 C 173.492188 -22.46875 172.492188 -17.488281 169.359375 -13.21875 C 166.234375 -8.957031 162.253906 -6.113281 157.421875 -4.6875 C 152.585938 -3.269531 148.179688 -3.414062 144.203125 -5.125 C 142.492188 -5.6875 137.65625 -5.96875 129.6875 -5.96875 C 112.625 -5.96875 94.421875 -4.832031 75.078125 -2.5625 Z M 276.453125 -325.9375 C 297.492188 -325.9375 317.113281 -332.191406 335.3125 -344.703125 C 353.519531 -357.222656 362.625 -379.691406 362.625 -412.109375 C 362.625 -446.804688 355.515625 -473.113281 341.296875 -491.03125 C 327.078125 -508.945312 306.3125 -520.46875 279 -525.59375 C 236.34375 -534.125 202.785156 -537.535156 178.328125 -535.828125 C 178.328125 -519.898438 178.039062 -507.957031 177.46875 -500 C 176.332031 -468.144531 174.910156 -445.390625 173.203125 -431.734375 C 170.929688 -411.828125 170.363281 -389.359375 171.5 -364.328125 L 173.203125 -331.0625 L 213.3125 -328.5 C 228.664062 -326.789062 249.710938 -325.9375 276.453125 -325.9375 Z M 276.453125 -325.9375 "/></g></g></g></g></g></svg>